<?xml version="1.0" encoding="UTF-8"?>
<svg id="Layer_1" data-name="Layer 1" xmlns="http://www.w3.org/2000/svg" viewBox="0 0 1080 1080">
  <defs>
    <style>
      .cls-1 {
        fill: #fff;
      }

      .cls-2 {
        fill: #2ecc71;
      }
    </style>
  </defs>
  <path class="cls-1" d="M203.27,448.03v183.94c-47.88-3.34-85.69-43.24-85.69-91.97s37.8-88.63,85.69-91.97Z"/>
  <path class="cls-1" d="M301.98,540c0,48.73-37.8,88.63-85.69,91.97v-91.97h85.69Z"/>
  <circle class="cls-2" cx="255.56" cy="487.53" r="39.12"/>
  <path class="cls-1" d="M397.36,594.09c-30.89,0-53.22-22.91-53.22-54.09s22.19-54.09,53.22-54.09c23.93,0,44.37,13.63,49.59,36.25l-17.84,4.35c-4.64-16.53-17.69-23.35-31.32-23.35-20.74,0-33.64,16.24-33.64,36.83s13.63,36.83,33.79,36.83c14.07,0,25.67-7.69,30.45-22.19h-30.31v-15.66h51.04c0,33.06-21.32,55.1-51.77,55.1Z"/>
  <path class="cls-1" d="M456.37,557.4c0-21.61,16.1-36.69,37.85-36.69s37.85,15.08,37.85,36.69-16.24,36.69-37.85,36.69-37.85-15.08-37.85-36.69ZM514.38,557.4c0-12.04-7.98-21.03-20.16-21.03s-20.3,9.13-20.3,21.03,8.12,21.03,20.3,21.03,20.16-9.14,20.16-21.03Z"/>
  <path class="cls-1" d="M562.66,559.43l16.97-3.77c4.06,13.63,12.62,21.9,27.55,21.9,10.88,0,20.01-4.35,20.01-14.65s-9.14-13.34-19.43-15.23l-8.85-1.59c-12.62-2.46-30.89-8.7-30.89-29.29s17.55-30.89,37.85-30.89,35.38,8.99,39.44,31.47l-17.11,3.77c-2.75-12.91-10.29-19.14-22.33-19.14-9.14,0-17.84,3.48-17.84,12.91s10.15,13.34,20.01,15.08l8.7,1.6c18.71,3.19,30.02,13.05,30.02,30.45,0,23.35-20.16,32.05-40.46,32.05-22.04,0-37.56-10.44-43.65-34.66Z"/>
  <path class="cls-1" d="M654.73,557.4c0-21.61,16.1-36.69,37.85-36.69s37.85,15.08,37.85,36.69-16.24,36.69-37.85,36.69-37.85-15.08-37.85-36.69ZM712.73,557.4c0-12.04-7.98-21.03-20.16-21.03s-20.3,9.13-20.3,21.03,8.12,21.03,20.3,21.03,20.16-9.14,20.16-21.03Z"/>
  <path class="cls-1" d="M808.29,572.48c-5.08,14.07-18.56,21.61-33.64,21.61-21.46,0-37.85-15.08-37.85-36.69s16.39-36.69,37.27-36.69c15.08,0,28.13,7.69,33.06,21.61l-15.37,5.8c-3.33-7.98-10.01-11.75-17.4-11.75-11.6,0-20.01,8.99-20.01,21.03s8.41,21.03,20.59,21.03c7.39,0,14.65-3.77,17.98-11.75l15.37,5.8Z"/>
  <path class="cls-1" d="M815.53,499.98c0-6.38,4.5-11.6,11.46-11.6s11.46,5.22,11.46,11.6-4.5,11.46-11.46,11.46-11.46-5.22-11.46-11.46ZM817.42,522.6h18.71v69.6h-18.71v-69.6Z"/>
  <path class="cls-1" d="M927.62,522.6v69.6h-16.96v-12.33c-5.51,8.55-14.65,14.21-27.41,14.21-21.32,0-35.53-15.08-35.53-36.69s14.21-36.69,35.53-36.69c12.76,0,21.9,5.66,27.41,14.21v-12.33h16.96ZM909.06,557.4c0-12.33-8.99-21.61-21.46-21.61s-21.46,9.28-21.46,21.61,8.7,21.61,21.46,21.61,21.46-9.14,21.46-21.61Z"/>
  <path class="cls-1" d="M943.86,487.8h18.56v104.4h-18.56v-104.4Z"/>
</svg>